# xmcd
#
# Track frame offsets:
#	150
#	14232
#	24945
#	39510
#	51692
#	62925
#	74910
#	84900
#	96952
#	112295
#	122812
#	134727
#	147532
#	162940
#	176280
#	190962
#	207235
#	222260
#	236407
#	249940
#	262620
#	276445
#	288895
#	299682
#	312850
#	324427
#
# Disc length: 4386 seconds
#
# Revision: 4
# Processed by: cddbd v1.5.1PL0 Copyright (c) Steve Scherf et al.
# Submitted via: EasyCDDAExtractor 5.0.6
#
DISCID=a011201a
DTITLE=Marvin Gaye - Love Starved Heart (Expanded Edition)
DYEAR=1999
DGENRE=Blues
TTITLE0=It's a Desperate Situation
TTITLE1=I Found Something
TTITLE2=When I Feel the Need
TTITLE3=This Love Starved Heart of Mine (It's Killing Me)
TTITLE4=You'se a Son of a Ggun
TTITLE5=For Us Both I'll Be Concerned
TTITLE6=Darling You're Wonderful
TTITLE7=Sad Souvenirs
TTITLE8=I Can't Help It (I Love You)
TTITLE9=It's a Lonely World without Your Love
TTITLE10=Say When
TTITLE11=Lucky Lucky Me
TTITLE12=Get Away Heartbreak (Keep On Moving)
TTITLE13=Court of the Common Plea
TTITLE14=You Make Me Do Things (I Don't Want to Do)
TTITLE15=Hope I Don't Get My Heart Broke
TTITLE16=You're the One
TTITLE17=Dark Side of the World
TTITLE18=I'm in Love with You
TTITLE19=Just a Little Love (Before My Life Is Gone)
TTITLE20=Baby I'm Glad That Things Worked Out So Well
TTITLE21=Hanging On
TTITLE22=Gotta Say It, Gonna Tell It Like It Is
TTITLE23=Love's More Precious Than Gold
TTITLE24=Loving and Affection
TTITLE25=Marvin Gaye Interview (Excerpt) - Spoken Word Bonus
EXTD=
EXTT0=
EXTT1=
EXTT2=
EXTT3=
EXTT4=
EXTT5=
EXTT6=
EXTT7=
EXTT8=
EXTT9=
EXTT10=
EXTT11=
EXTT12=
EXTT13=
EXTT14=
EXTT15=
EXTT16=
EXTT17=
EXTT18=
EXTT19=
EXTT20=
EXTT21=
EXTT22=
EXTT23=
EXTT24=
EXTT25=
PLAYORDER=
